<?xml version="1.0" encoding="utf-8"?>
<!-- Generator: Adobe Illustrator 28.0.0, SVG Export Plug-In . SVG Version: 6.00 Build 0)  -->
<svg version="1.1" id="Calque_1" xmlns="http://www.w3.org/2000/svg" xmlns:xlink="http://www.w3.org/1999/xlink" x="0px" y="0px"
	 viewBox="0 0 1920 1080" style="enable-background:new 0 0 1920 1080;" xml:space="preserve">
<g>
	<g>
		<path d="M888.89,415c3.34,1.49,4.39,4.21,4.32,7.66c-0.08,4.13,0.06,8.26-0.06,12.38c-0.04,1.56,0.42,2.26,1.94,2.69
			c42.87,12.24,85.73,24.53,128.6,36.8c0.45,0.13,0.93,0.17,1.39,0.25c1.31-5.67,3.28-7.23,9.11-7.23c7.61-0.01,15.21-0.01,22.82,0
			c4.45,0.01,6.6,2.02,6.64,6.47c0.08,8.5,0.09,16.99,0,25.49c-0.05,4.36-2.16,6.28-6.51,6.3c-1.93,0.01-3.86,0-5.98,0
			c0,22.34,0,44.52,0,66.96c2.24,0,4.4-0.02,6.56,0c3.37,0.04,5.25,1.63,5.81,4.95c0.13,0.79,0.14,1.61,0.15,2.42
			c0.01,7.85,0.02,15.7,0,23.55c-0.01,5.44-1.91,7.35-7.24,7.35c-7.61,0-15.21,0.02-22.82-0.01c-5.24-0.02-7.56-1.99-8.47-7.38
			c-43.93,12.59-87.83,25.16-131.94,37.8c0,4.64,0.02,9.24-0.01,13.84c-0.01,1.2-0.08,2.43-0.32,3.61c-0.6,2.97-2.57,4.65-5.61,4.67
			c-8.5,0.05-16.99,0.07-25.49,0c-4.4-0.04-6.84-2.62-6.85-7.03c-0.02-8.01-0.02-16.02,0-24.03c0.01-4.51,2.43-7.01,6.98-7.19
			c1.77-0.07,3.55-0.01,5.52-0.01c0-57.28,0-114.45,0-172.02c-1.63,0-3.37,0.03-5.11-0.01c-4.96-0.09-7.39-2.56-7.4-7.51
			c-0.01-7.53,0.17-15.06-0.07-22.57c-0.13-4,1.29-6.66,4.92-8.2C869.47,415,879.18,415,888.89,415z M892.95,449.46
			c-3.06,5.83-8.65,3.04-13.15,4.04c0,26.72,0,53.38,0,80.05c18.01,0,35.85,0,53.83,0c0.06-0.7,0.15-1.24,0.15-1.79
			c0.01-22.9-0.01-45.8,0.04-68.7c0-1.52-0.57-2.08-1.96-2.47C918.97,456.94,906.09,453.23,892.95,449.46z M933.8,545.82
			c-18.21,0-36.12,0-54.03,0c0,26.53,0,52.88,0,79.29c4.67,0.91,10.31-1.78,13.24,4.01c12.88-3.69,25.52-7.37,38.2-10.91
			c1.97-0.55,2.65-1.33,2.64-3.44c-0.08-22.09-0.05-44.18-0.05-66.27C933.8,547.64,933.8,546.77,933.8,545.82z M987.02,533.58
			c0.06-0.72,0.13-1.26,0.13-1.81c0.01-17.8-0.02-35.59,0.05-53.39c0.01-1.67-0.69-2.21-2.1-2.6c-7-1.94-13.99-3.95-20.98-5.94
			c-6.04-1.72-12.09-3.45-18.25-5.21c0,23.11,0,45.96,0,68.94C959.57,533.58,973.14,533.58,987.02,533.58z M945.86,545.77
			c0,22.76,0,45.35,0,68.12c0.93-0.24,1.71-0.42,2.48-0.64c12.12-3.45,24.22-6.95,36.36-10.31c1.89-0.52,2.53-1.25,2.52-3.27
			c-0.09-17.15-0.05-34.3-0.06-51.45c0-0.78-0.08-1.57-0.13-2.46C973.27,545.77,959.71,545.77,945.86,545.77z M999.25,479.88
			c0,18.03,0,35.78,0,53.67c13.24,0,26.36,0,39.49,0c0-9.33,0-18.48,0-27.74c-2.3,0-4.41,0.08-6.5-0.02
			c-4.29-0.21-6.82-2.88-6.84-7.15c-0.02-3.71,0-7.42,0-11.17C1016.62,484.91,1008.03,482.42,999.25,479.88z M999.26,545.71
			c0,17.73,0,35.23,0,53.02c8.83-2.57,17.47-5.08,26.14-7.59c0-3.83-0.01-7.38,0-10.93c0.02-4.66,2.62-7.29,7.35-7.4
			c2-0.05,3.99-0.01,6-0.01c0-9.19,0-18.11,0-27.08C1025.55,545.71,1012.54,545.71,999.26,545.71z"/>
	</g>
</g>
</svg>
