<?xml version="1.0" encoding="UTF-8"?>
<svg id="Calque_2" data-name="Calque 2" xmlns="http://www.w3.org/2000/svg" viewBox="0 0 174.33 136.74">
  <defs>
    <style>
      .cls-1 {
        fill: #231f20;
        stroke-width: 0px;
      }
    </style>
  </defs>
  <g id="Layer_1" data-name="Layer 1">
    <path class="cls-1" d="m141.99,77.38c-6.38.56-12.22,3.18-16.94,7.34l-12.23-10.25c.55-1.63.91-3.35.91-5.16,0-2.35-.52-4.58-1.41-6.6l12.73-10.67c4.72,4.16,10.56,6.78,16.94,7.34.89.08,1.77.11,2.65.11,6.97,0,13.65-2.42,19.05-6.95,6.09-5.1,9.82-12.27,10.52-20.18.69-7.91-1.73-15.62-6.83-21.71-5.1-6.09-12.27-9.82-20.19-10.52-7.95-.7-15.63,1.74-21.71,6.84-11.38,9.54-13.7,25.81-6.24,38.14l-12.73,10.67c-2.6-1.76-5.74-2.78-9.11-2.78-1.12,0-2.21.11-3.26.33L30.92,24.85c-9.06-4.08-19.67-2.58-27.24,3.86l-3.68,3.13,79.87,36.53L0,104.9l3.68,3.13c7.57,6.44,18.18,7.94,27.24,3.86l60.78-27.36c1.78.67,3.69,1.08,5.71,1.08,3.9,0,7.42-1.42,10.23-3.7l11.61,9.73c-7.47,12.33-5.14,28.59,6.24,38.14,5.4,4.53,12.08,6.95,19.05,6.95.88,0,1.77-.04,2.65-.12,7.91-.69,15.08-4.43,20.19-10.52,5.1-6.09,7.53-13.8,6.83-21.71-.69-7.91-4.43-15.08-10.51-20.18-6.09-5.1-13.78-7.53-21.71-6.84Zm-11.85-64.88c4.6-3.86,10.42-5.71,16.43-5.18,5.99.53,11.41,3.35,15.27,7.96,3.86,4.61,5.7,10.44,5.17,16.43-.53,5.99-3.35,11.41-7.96,15.27-4.6,3.86-10.41,5.72-16.43,5.18-5.99-.53-11.41-3.35-15.27-7.96-7.97-9.51-6.72-23.73,2.79-31.7Zm31.7,108.96c-3.86,4.61-9.28,7.43-15.27,7.96-5.97.51-11.82-1.31-16.43-5.17-9.51-7.97-10.76-22.2-2.79-31.7,3.86-4.61,9.29-7.43,15.27-7.96,5.99-.54,11.82,1.31,16.43,5.18,4.61,3.86,7.43,9.28,7.96,15.27.53,5.99-1.31,11.82-5.17,16.43Z"/>
  </g>
</svg>