<?xml version="1.0" encoding="utf-8"?>
<!-- Generator: Adobe Illustrator 28.0.0, SVG Export Plug-In . SVG Version: 6.00 Build 0)  -->
<svg version="1.1" id="Calque_1" xmlns="http://www.w3.org/2000/svg" xmlns:xlink="http://www.w3.org/1999/xlink" x="0px" y="0px"
	 viewBox="0 0 1920 1080" style="enable-background:new 0 0 1920 1080;" xml:space="preserve">
<g>
	<g>
		<path d="M1472,690c0,14.67,0,29.33,0,44c-1.1,9.22-1.94,18.47-3.33,27.64c-11.16,73.42-42.5,136.96-94.81,189.63
			c-54.75,55.12-120.96,87.78-198.13,97.82c-8.55,1.11-17.15,1.94-25.72,2.9c-11.33,0-22.67,0-34,0c-1.79-0.31-3.57-0.7-5.37-0.91
			c-12.56-1.49-25.3-2.07-37.66-4.55c-115.77-23.24-198.95-88.47-249.71-195.01c-1.68-3.53-3.36-4.86-7.34-4.84
			c-35.5,0.17-71,0.17-106.5,0.04c-6.64-0.02-13.39-0.24-19.9-1.41c-49-8.83-81.47-47.9-81.48-97.71c-0.01-32,0-64,0-96
			c0-1.91,0-3.82,0-6.05c-3.01,0-5.16,0-7.32,0c-44,0-88-0.15-132,0.13c-9.98,0.06-17.17-2.95-20.72-12.68c0-197.67,0-395.33,0-593
			c2.48-5.52,6.49-9.51,12-12c197.67,0,395.33,0,593,0c9.71,3.56,12.75,10.76,12.69,20.72c-0.26,44.15-0.12,88.3-0.12,132.46
			c0,2.11,0,4.22,0,6.86c2.57,0,4.53,0,6.49,0c31.66,0,63.32-0.29,94.97,0.16c9.72,0.14,19.75,1.11,29.06,3.73
			c42.54,11.95,70.33,49.2,70.58,93.92c0.2,36.65,0.09,73.31-0.03,109.96c-0.01,3.46,0.97,5.2,4.26,6.66
			c25.06,11.13,48.59,24.94,70.06,42.02c72.08,57.35,115.09,131.49,128.15,222.81C1470.19,674.86,1471.04,682.44,1472,690z
			 M1132.75,405c-170.19,0.4-307.63,138.22-307.19,308.02c0.45,170.14,137.94,307.47,307.42,307.05
			c170.38-0.42,307.39-137.96,307.39-307.99C1440.36,547.73,1308.56,405.95,1132.75,405z M1234.62,387.47
			c0.08-0.69,0.27-1.65,0.27-2.61c0.01-33.66,0.26-67.33-0.21-100.98c-0.11-7.49-1.84-15.29-4.44-22.36
			c-9.61-26.1-33.61-41.62-63.25-41.62c-152.98-0.01-305.96,0.01-458.94,0.07c-3.98,0-7.98,0.32-11.93,0.84
			c-31.72,4.14-56.15,31.49-56.16,63.27c-0.08,154.98-0.07,309.96-0.01,464.94c0,5.12,0.49,10.36,1.64,15.34
			c7.06,30.32,32.76,50.41,64.73,50.57c30.33,0.16,60.66,0.04,90.99,0.04c3.65,0,7.3,0,10.68,0
			c-34.14-129.74-10.4-246.16,85.07-341.8C988.54,377.51,1104.95,353.67,1234.62,387.47z M607.99,613.5c0-2.54,0-4.52,0-6.51
			c0.03-108.65-0.1-217.3,0.2-325.95c0.06-23.94,9.39-44.78,25.71-62.16c20.13-21.43,45.17-31.06,74.6-30.99
			c106.32,0.25,212.63,0.1,318.95,0.1c1.94,0,3.87,0,5.94,0c0-43.03,0-85.4,0-127.75c-184.64,0-368.86,0-553.16,0
			c0,184.54,0,368.75,0,553.25C522.78,613.5,565.02,613.5,607.99,613.5z"/>
	</g>
</g>
</svg>
