<?xml version="1.0" encoding="utf-8"?>
<!-- Generator: Adobe Illustrator 28.0.0, SVG Export Plug-In . SVG Version: 6.00 Build 0)  -->
<svg version="1.1" id="Calque_1" xmlns="http://www.w3.org/2000/svg" xmlns:xlink="http://www.w3.org/1999/xlink" x="0px" y="0px"
	 viewBox="0 0 1920 1080" style="enable-background:new 0 0 1920 1080;" xml:space="preserve">
<g>
	<g>
		<path d="M1079.84,429.07c-2.89-3.12-5.96-6.06-8.96-9.06c-12.2-12.18-25.53-12.19-37.68-0.04
			c-84.39,84.39-168.76,168.8-253.2,253.14c-5.18,5.17-10.03,10.38-12,17.64V699c3.06,11.85,12.4,18.84,21.02,26.03
			c7.66,6.4,21.36,6.26,31.82-4.24c85.59-85.84,171.35-171.51,257.06-257.23c0.88-0.88,1.77-1.77,2.58-2.72
			C1088.45,451.46,1088.22,438.08,1079.84,429.07z M1068.7,451.4c-17.41,17.57-34.96,35.03-52.47,52.51
			c-0.15,0.16-0.44,0.18-0.32,0.14c-7.61-7.58-15.1-15.04-22.77-22.68c0.55-0.58,1.37-1.5,2.24-2.37
			c16.17-16.18,32.34-32.35,48.52-48.52c6.09-6.09,10.13-6.09,16.21-0.03c2.83,2.82,5.72,5.59,8.45,8.51
			C1072.16,442.81,1072.37,447.69,1068.7,451.4z"/>
		<path d="M1152,393.75c-2.77,1.94-5.28,4.51-8.34,5.73c-18.9,7.55-16.39,5.44-23.78,23.86c-0.37,0.93-0.7,1.87-1.06,2.8
			c-1.31,3.32-3.6,5.43-7.31,5.43c-3.7,0-5.99-2.11-7.3-5.43c-1.74-4.41-3.52-8.8-5.2-13.24c-1.7-4.48-4.8-7.51-9.22-9.26
			c-4.41-1.74-8.8-3.53-13.23-5.21c-3.38-1.29-5.46-3.59-5.48-7.25c-0.01-3.66,2.05-5.98,5.43-7.27c4.2-1.6,8.32-3.4,12.54-4.93
			c5.18-1.88,8.53-5.42,10.4-10.55c1.5-4.1,3.16-8.14,4.75-12.21c1.3-3.32,3.52-5.42,7.27-5.44c3.74-0.02,6.02,2.05,7.33,5.36
			c1.61,4.06,3.27,8.1,4.75,12.21c1.91,5.28,5.34,8.88,10.7,10.71c3.18,1.09,6.42,2.17,9.37,3.74c2.96,1.58,5.6,3.77,8.38,5.7
			C1152,390.25,1152,392,1152,393.75z M1111.69,382.05c-2.78,2.69-6.9,6.69-9.25,8.96c2.61,2.63,6.68,6.72,9.21,9.27
			c2.54-2.66,6.52-6.82,8.79-9.19C1118.11,388.68,1114.16,384.6,1111.69,382.05z"/>
		<path d="M1017.6,554.97c0.15-3.35,1.99-5.58,5.22-6.84c6.96-2.72,13.89-5.56,20.87-8.22c8.55-3.26,14.43-9.07,17.67-17.66
			c2.59-6.88,5.44-13.67,8.08-20.53c1.35-3.51,3.7-5.72,7.51-5.66c3.63,0.06,5.9,2.22,7.2,5.58c2.75,7.09,5.62,14.13,8.36,21.22
			c3.11,8.03,8.65,13.57,16.64,16.71c6.61,2.6,13.18,5.31,19.84,7.78c3.92,1.45,7.12,3.47,7.07,8.08c-0.05,4.42-3.19,6.39-6.95,7.8
			c-6.42,2.41-12.74,5.07-19.16,7.47c-8.58,3.22-14.46,9.05-17.72,17.61c-2.57,6.76-5.29,13.46-7.89,20.2
			c-1.37,3.57-3.56,6.05-7.67,5.97c-3.9-0.07-6.02-2.41-7.34-5.87c-2.58-6.75-5.41-13.41-7.95-20.18
			c-3.23-8.59-9.05-14.44-17.62-17.69c-6.99-2.65-13.92-5.48-20.87-8.22C1019.55,561.19,1017.61,558.87,1017.6,554.97z
			 M1108.54,555.28c-16.3-5.13-26.41-15.4-31.78-31.58c-5.2,16.26-15.47,26.26-31.51,31.65c16.23,5.23,26.2,15.39,31.55,31.46
			C1082.18,570.6,1092.3,560.5,1108.54,555.28z"/>
		<path d="M949.88,359.11c3.73,0.06,6.03,2,7.34,5.37c2.4,6.15,4.97,12.25,7.26,18.44c2.92,7.89,8.3,13.15,16.15,16.07
			c5.96,2.22,11.84,4.64,17.76,6.95c3.39,1.32,5.84,3.4,5.9,7.35c0.06,4.12-2.38,6.29-5.96,7.67c-6.17,2.37-12.27,4.9-18.44,7.26
			c-7.18,2.74-12.18,7.61-14.99,14.76c-2.46,6.27-4.98,12.51-7.38,18.8c-1.37,3.6-3.66,6.1-7.66,6.03c-3.8-0.06-6.02-2.41-7.34-5.92
			c-2.32-6.19-4.89-12.28-7.26-18.45c-2.8-7.3-7.75-12.37-15.05-15.19c-6.28-2.43-12.5-5-18.79-7.4c-3.5-1.33-5.79-3.59-5.8-7.42
			c-0.01-3.85,2.35-6.1,5.8-7.44c5.93-2.29,11.8-4.75,17.77-6.94c7.87-2.89,13.28-8.09,16.22-15.99c2.3-6.19,4.88-12.28,7.27-18.44
			C943.99,361.29,946.18,359.23,949.88,359.11z M976.5,413.42c-13.23-4.67-21.65-13.33-26.54-26.35
			c-4.75,13.14-13.37,21.58-26.36,26.41c13.18,4.78,21.6,13.32,26.42,26.44C954.76,426.71,963.25,418.29,976.5,413.42z"/>
	</g>
</g>
</svg>
