<?xml version="1.0" encoding="utf-8"?>
<!-- Generator: Adobe Illustrator 28.0.0, SVG Export Plug-In . SVG Version: 6.00 Build 0)  -->
<svg version="1.1" xmlns="http://www.w3.org/2000/svg" xmlns:xlink="http://www.w3.org/1999/xlink" x="0px" y="0px"
	 viewBox="0 0 95 118.8" style="enable-background:new 0 0 95 118.8;" xml:space="preserve">
<style type="text/css">
	.st0{fill:none;stroke:#000000;stroke-width:2.0327;stroke-miterlimit:10;}
</style>
<g id="Calque_2">
</g>
<g id="Calque_1">
	<circle class="st0" cx="45.2" cy="56.6" r="27.2"/>
	<circle class="st0" cx="24.2" cy="56.1" r="18.5"/>
	<polygon points="89.2,76.2 58.2,45.2 58.2,89.4 70.9,75.5 	"/>
	<g>
		<path d="M13.2,58.3c-0.9,0-1.6-0.7-1.6-1.6c0-0.9,0.7-1.6,1.6-1.6h0.2l0,0c0.9,0,1.6,0.7,1.6,1.6c0,0.9-0.7,1.6-1.6,1.6H13.2
			L13.2,58.3z M23.5,58.1c-0.9,0-1.6-0.7-1.6-1.6c0-0.9,0.7-1.6,1.6-1.7h0.2c0.9-0.1,1.6,0.7,1.7,1.6c0,0.9-0.7,1.6-1.6,1.7H23.5
			C23.6,58.1,23.6,58.1,23.5,58.1z M34,57.9c-0.9,0-1.6-0.7-1.6-1.6c0-0.9,0.7-1.6,1.6-1.7h0.2c0.9-0.1,1.6,0.7,1.7,1.6
			c0,0.9-0.7,1.6-1.6,1.7H34L34,57.9z"/>
	</g>
	<circle cx="50.3" cy="56.4" r="1.8"/>
</g>
</svg>
