<?xml version="1.0" encoding="utf-8"?>
<!-- Generator: Adobe Illustrator 28.0.0, SVG Export Plug-In . SVG Version: 6.00 Build 0)  -->
<svg version="1.1" id="Calque_1" xmlns="http://www.w3.org/2000/svg" xmlns:xlink="http://www.w3.org/1999/xlink" x="0px" y="0px"
	 viewBox="0 0 100 125" style="enable-background:new 0 0 100 125;" xml:space="preserve">
<g>
	<path d="M34.5,35.3L34.6,50h2.1c0.9-4.7,2.2-6.8,3.9-8.2c1.7-1.4,5-2.1,9.8-2.1h4.9v38.9c0,3.7-0.5,5.2-1.4,6.1
		c-0.9,0.9-3.2,1.5-6.9,1.8v2.5h25.3v-2.5c-3.5-0.3-5.8-0.8-6.9-1.6c-1-0.8-1.6-2-1.6-5.3v-40h4.8c5,0,8.3,0.7,9.9,2.1
		c1.6,1.4,2.9,3.5,3.9,8.2h2.1l0.1-14.7C84.7,35.3,34.5,35.3,34.5,35.3z"/>
	<path d="M28.3,76.1H25V37.5c0-0.5-0.2-1-0.6-1.4s-0.9-0.6-1.4-0.6h-0.3c-0.5,0-1,0.2-1.4,0.6c-0.4,0.4-0.6,0.9-0.6,1.4v38.7h-3.2
		c-0.8,0-1.5,0.4-1.9,1.1c-0.4,0.7-0.4,1.5,0,2.1l5.4,9.3c0.4,0.7,1.1,1.1,1.9,1.1c0.8,0,1.5-0.4,1.9-1.1l5.4-9.3
		c0.4-0.7,0.4-1.5,0-2.1C29.7,76.5,29,76.1,28.3,76.1z M22.9,83.3l-1.7-2.9h3.4L22.9,83.3z"/>
</g>
</svg>
