<?xml version="1.0" encoding="utf-8"?>
<!-- Generator: Adobe Illustrator 28.0.0, SVG Export Plug-In . SVG Version: 6.00 Build 0)  -->
<svg version="1.1" id="Calque_1" xmlns="http://www.w3.org/2000/svg" xmlns:xlink="http://www.w3.org/1999/xlink" x="0px" y="0px"
	 viewBox="0 0 100 125" style="enable-background:new 0 0 100 125;" xml:space="preserve">
<g>
	<path d="M62.9,93.5C62.9,93.5,62.9,93.5,62.9,93.5L53,97.4c-0.3,0.1-0.7,0.1-1,0c-0.3-0.1-0.5-0.4-0.6-0.7l-6.6-21.8l-11.6,7.5
		c-0.4,0.2-0.9,0.3-1.3,0c-0.4-0.2-0.6-0.6-0.6-1.1l0.1-52.6c0-0.5,0.3-1,0.8-1.1c0.5-0.2,1,0,1.4,0.3l34.8,39.5
		c0.3,0.3,0.4,0.8,0.2,1.2c-0.2,0.4-0.5,0.7-1,0.8l-13.7,2l9.6,20.3c0,0.1,0.1,0.1,0.1,0.2C63.8,92.6,63.5,93.3,62.9,93.5z
		 M53.4,94.7l7.4-3L51,70.9c-0.1-0.4-0.1-0.7,0.1-1.1c0.2-0.3,0.5-0.6,0.9-0.6l13-1.9L33.9,32l-0.1,47.1l11-7.2
		c0.3-0.2,0.7-0.3,1.1-0.1c0.4,0.1,0.6,0.4,0.8,0.8L53.4,94.7z"/>
</g>
</svg>
