<?xml version="1.0" encoding="utf-8"?>
<!-- Generator: Adobe Illustrator 28.0.0, SVG Export Plug-In . SVG Version: 6.00 Build 0)  -->
<svg version="1.1" id="Calque_1" xmlns="http://www.w3.org/2000/svg" xmlns:xlink="http://www.w3.org/1999/xlink" x="0px" y="0px"
	 viewBox="0 0 100 125" style="enable-background:new 0 0 100 125;" xml:space="preserve">
<g>
	<path d="M41.5,54.4L10.4,85.6c-0.2,0.2-0.3,0.4-0.4,0.6c-0.3,0.6-0.2,1.2,0.3,1.6c0.9,0.9,1.3,1.3,23.8-8.8
		c10.7-4.8,21.4-9.9,21.5-9.9l0.2-0.1l0.2-0.2c3.9-3.9,3.9-10.4,0-14.3S45.5,50.5,41.5,54.4z M54.1,66.7C42.1,72.4,24,80.7,15.7,84
		l27.7-27.7c2.9-2.9,7.7-2.9,10.6,0C56.9,59.2,56.9,63.8,54.1,66.7z"/>
	<polygon points="86.4,36.8 60.5,36.8 56.7,36.8 49.9,43.6 66.6,60.4 90.2,36.8 	"/>
</g>
</svg>
