<?xml version="1.0" encoding="utf-8"?>
<!-- Generator: Adobe Illustrator 28.0.0, SVG Export Plug-In . SVG Version: 6.00 Build 0)  -->
<svg version="1.1" id="Calque_1" xmlns="http://www.w3.org/2000/svg" xmlns:xlink="http://www.w3.org/1999/xlink" x="0px" y="0px"
	 viewBox="0 0 100 125" style="enable-background:new 0 0 100 125;" xml:space="preserve">
<g>
	<path d="M84,65.1L77.4,62c-1,0.9-2.1,1.6-3.3,2.1l4.6,2.2l-28.8,8.8c-1.5-2.9-5.2-5-9.4-5c-1.4,0-2.7,0.2-3.9,0.6L20.3,39.3
		l23.9,11l7.9,0l-34.7-16c-0.6-0.3-1.4-0.1-1.9,0.4c-0.5,0.5-0.6,1.3-0.3,1.9l18.5,35.6c-2.1,1.5-3.4,3.6-3.4,6c0,3.9,3.4,7.1,8,7.9
		l-3.9,6.8c-0.5,0.8-0.2,1.8,0.6,2.2c0.3,0.2,0.5,0.2,0.8,0.2c0.6,0,1.1-0.3,1.4-0.8l4.9-8.4c4.8-0.6,8.5-3.9,8.5-7.9l33.1-10.2
		c0.7-0.2,1.1-0.8,1.2-1.5C85,66,84.7,65.3,84,65.1z M33.7,78.2c0-1.1,0.6-2.2,1.6-3l4,7.8C36.1,82.5,33.7,80.5,33.7,78.2z
		 M42.9,82.7l-4.7-9c0.7-0.2,1.5-0.3,2.3-0.3c3.7,0,6.9,2.2,6.9,4.8C47.4,80.2,45.5,82,42.9,82.7z"/>
	<path d="M66.3,41.3c0.4,0.4,0.6,0.9,0.6,1.5v7c0,0.8-0.3,1.5-0.8,2c-0.5,0.5-1.3,0.8-2,0.8l-6.8,0l-7.9,0l-9.7,0v11.3h14h12.5
		c1.8,0,3.6-0.4,5.2-1.1c1.2-0.5,2.3-1.2,3.3-2.1c0.2-0.2,0.4-0.3,0.5-0.5c2.4-2.4,3.7-5.6,3.7-9v-8c0-3.6-1.4-7-4-9.6
		c-2.6-2.6-6-4-9.6-4H53.6h-14v11.1l25.2,0C65.4,40.7,65.9,40.9,66.3,41.3z M51.1,61.5H42v-6.3h9.1V61.5z M51.1,38.2H42v-6.1h9.1
		V38.2z"/>
</g>
</svg>
