<?xml version="1.0" encoding="utf-8"?>
<!-- Generator: Adobe Illustrator 28.0.0, SVG Export Plug-In . SVG Version: 6.00 Build 0)  -->
<svg version="1.1" id="Calque_1" xmlns="http://www.w3.org/2000/svg" xmlns:xlink="http://www.w3.org/1999/xlink" x="0px" y="0px"
	 viewBox="0 0 100 125" style="enable-background:new 0 0 100 125;" xml:space="preserve">
<g>
	<path d="M21.7,32.1h56.7l-0.1,16.6h-2.3c-1.1-5.2-2.6-7.6-4.4-9.2c-1.8-1.6-5.5-2.4-11.2-2.4h-5.4v45.1c0,3.8,0.6,5.1,1.8,6
		c1.2,0.9,3.8,1.5,7.7,1.8v2.8H35.9v-2.8c4.1-0.3,6.7-1,7.7-2c1-1,1.5-2.7,1.5-6.9v-44h-5.5c-5.4,0-9.1,0.8-11.1,2.3
		c-2,1.6-3.4,4-4.4,9.2h-2.4L21.7,32.1z"/>
</g>
</svg>
