<?xml version="1.0" encoding="utf-8"?>
<!-- Generator: Adobe Illustrator 28.0.0, SVG Export Plug-In . SVG Version: 6.00 Build 0)  -->
<svg version="1.1" id="Calque_1" xmlns="http://www.w3.org/2000/svg" xmlns:xlink="http://www.w3.org/1999/xlink" x="0px" y="0px"
	 viewBox="0 0 100 125" style="enable-background:new 0 0 100 125;" xml:space="preserve">
<path d="M70.1,32.1l-7.6-4.4c-0.8-0.5-1.8-0.2-2.3,0.6c-0.5,0.8-0.2,1.8,0.6,2.2l7,4l5.9,22l-7.9,13.6l-10.8,2.9l10.4-17.7
	c0.5-0.8,0.2-1.8-0.6-2.2C64,52.7,63,53,62.6,53.8L43.8,86.5L41,91.2c-0.4,0.7-1.1,1.3-1.8,1.6c-0.3,0.2-0.6,0.3-0.9,0.4l-3.2,0.9
	c-0.6,0.1-1.1,0.2-1.6,0.1c-1.4-0.3-2.7-1.3-3.1-2.8c-0.4-1.4,0.1-2.9,1.1-3.8c0.4-0.4,1-0.7,1.6-0.9l2-0.5l2.2-3.7l15.3-26.6
	c0.5-0.8,0.2-1.8-0.6-2.2c-0.8-0.5-1.8-0.2-2.3,0.6l-2.1,3.6l-7.1,12c-1.2,1.3-3.2,1.7-4.8,0.7c-1.8-1.1-2.5-3.4-1.4-5.2l6.2-10.5
	c0.5-0.8,0.2-1.8-0.6-2.3c-0.8-0.5-1.8-0.2-2.3,0.6l-1.6,2.7c-0.1,0.1-0.1,0.2-0.2,0.3l-2.2,3.6c-0.9,1.6-2.9,2.1-4.5,1.2
	c-0.8-0.4-1.3-1.1-1.5-2c-0.2-0.8-0.1-1.7,0.3-2.5l3.2-5.6c0.4-0.7,0.2-1.5-0.5-1.9c-0.7-0.4-1.5-0.2-1.9,0.5l-1.6,2.8l-1.1-4
	c-0.5-1.7,4.3-6.5,7.8-10c0.6-0.6,0.6-1.7,0-2.3c-0.6-0.6-1.7-0.6-2.3,0C25,42.5,22.2,45.8,23,49l1.8,6.8c0.1,0.2,0.1,0.4,0.2,0.5
	c-0.3,1-0.3,2.2,0,3.2c0.4,1.6,1.4,2.9,2.8,3.7c1.1,0.6,2.2,0.9,3.4,0.8c-1.6,3.3-0.4,7.4,2.9,9.3c1.2,0.7,2.5,1,3.8,0.9l-5,9.1
	l-0.7,0.2c-3.8,1-6.1,4.9-5,8.7c1,3.8,4.9,6.1,8.7,5l3.2-0.9c0.6-0.2,1.1-0.4,1.6-0.7c1.3-0.6,2.4-1.6,3.1-2.9l9-16
	c0.3,0.1,0.6,0.1,0.9,0l13.5-3.6c0.4-0.1,0.8-0.4,1-0.8c0,0,5.7-9.9,8.5-14.8c0.2-0.4,0.3-0.8,0.2-1.2l-6.3-23.3
	C70.7,32.7,70.4,32.3,70.1,32.1z"/>
</svg>
