<?xml version="1.0" encoding="utf-8"?>
<!-- Generator: Adobe Illustrator 28.0.0, SVG Export Plug-In . SVG Version: 6.00 Build 0)  -->
<svg version="1.1" id="Calque_1" xmlns="http://www.w3.org/2000/svg" xmlns:xlink="http://www.w3.org/1999/xlink" x="0px" y="0px"
	 viewBox="0 0 100 125" style="enable-background:new 0 0 100 125;" xml:space="preserve">
<g>
	<path d="M84.4,70.9H71.7V42.1c0-0.2-0.1-0.4-0.2-0.6L83,30c0.2-0.2,0.3-0.4,0.3-0.7c0-0.3-0.1-0.5-0.3-0.7l-0.2-0.2
		c-0.2-0.2-0.4-0.3-0.7-0.3c-0.3,0-0.5,0.1-0.7,0.3L69.2,40.7H41.1V28.8c0-0.8-0.6-1.4-1.4-1.4h-10c-0.8,0-1.4,0.6-1.4,1.4v11.8
		H15.6c-0.8,0-1.4,0.6-1.4,1.4v10c0,0.8,0.6,1.4,1.4,1.4h12.8v28.7c0,0.6,0.4,1.1,0.9,1.3c0.2,0.1,0.4,0.2,0.7,0.2h29v12.5
		c0,0.8,0.6,1.4,1.4,1.4h10c0.8,0,1.4-0.6,1.4-1.4V83.7h12.8c0.8,0,1.4-0.6,1.4-1.4v-10C85.8,71.5,85.2,70.9,84.4,70.9z M83,80.9
		H68.9v13.9h-7.2V80.9H31.3v-0.1h-0.2V50.7H17v-7.2h14.2V30.3h7.2v13.2h30.5v30.2H83L83,80.9L83,80.9z"/>
	<path d="M38.3,50.7v23.1h23.4V50.7H38.3z M41.1,53.5h15.3L41.1,68.7V53.5z M58.9,70.9H42l16.8-16.8V70.9z"/>
</g>
</svg>
