<?xml version="1.0" encoding="utf-8"?>
<!-- Generator: Adobe Illustrator 28.0.0, SVG Export Plug-In . SVG Version: 6.00 Build 0)  -->
<svg version="1.1" id="Calque_1" xmlns="http://www.w3.org/2000/svg" xmlns:xlink="http://www.w3.org/1999/xlink" x="0px" y="0px"
	 viewBox="0 0 100 125" style="enable-background:new 0 0 100 125;" xml:space="preserve">
<g>
	<path d="M16.8,52.7c0.1,0,0.2,0,0.2,0c0.9,0,1.7-0.7,1.9-1.6c0-0.2,0.1-0.4,0.1-0.7c0.2-1-0.5-2-1.5-2.2c-1-0.2-2,0.5-2.2,1.5
		c0,0.3-0.1,0.6-0.1,0.8C15,51.6,15.7,52.6,16.8,52.7z"/>
	<path d="M16.9,61c1,0,1.9-0.8,1.9-1.9v-0.8c0-1-0.8-1.9-1.9-1.9c-1,0-1.9,0.8-1.9,1.9v0.8C15,60.2,15.8,61,16.9,61z"/>
	<path d="M27.1,36.6c-0.3,0.1-0.5,0.2-0.8,0.3c-1,0.3-1.5,1.4-1.1,2.4c0.3,0.8,1,1.3,1.8,1.3c0.2,0,0.4,0,0.6-0.1
		c0.2-0.1,0.4-0.1,0.6-0.2c1-0.3,1.6-1.3,1.3-2.3C29.2,36.8,28.1,36.3,27.1,36.6z"/>
	<path d="M41.7,43.5C42,43.9,42.5,44,43,44c0.5,0,1-0.2,1.3-0.6c0.7-0.7,0.7-1.9,0-2.7c-0.2-0.2-0.4-0.4-0.6-0.6
		c-0.8-0.7-2-0.6-2.7,0.1c-0.7,0.8-0.6,2,0.1,2.7C41.3,43.2,41.5,43.3,41.7,43.5z"/>
	<path d="M44.9,48.9c0.1,0.2,0.1,0.4,0.2,0.6c0.2,0.9,1,1.4,1.8,1.4c0.2,0,0.3,0,0.5-0.1c1-0.3,1.6-1.3,1.4-2.3
		c-0.1-0.3-0.1-0.5-0.2-0.8c-0.3-1-1.4-1.6-2.4-1.2C45.2,46.9,44.6,47.9,44.9,48.9z"/>
	<path d="M34.8,39.8c0.2,0,0.4,0.1,0.6,0.1c0.1,0,0.3,0.1,0.4,0.1c0.9,0,1.6-0.6,1.8-1.4c0.2-1-0.4-2-1.4-2.3
		c-0.3-0.1-0.6-0.1-0.8-0.2c-1-0.2-2,0.5-2.2,1.5S33.7,39.7,34.8,39.8z"/>
	<path d="M18.8,67.4l0-0.7c0-1-0.8-1.9-1.9-1.9c-1,0-1.9,0.8-1.9,1.9l0,0.8c0,1,0.9,1.9,1.9,1.9c0,0,0,0,0,0
		C18,69.3,18.8,68.4,18.8,67.4z"/>
	<path d="M20.5,73.7c-0.5-0.9-1.7-1.2-2.6-0.7c-0.9,0.5-1.2,1.7-0.7,2.6c0.1,0.2,0.3,0.5,0.4,0.7c0.4,0.6,1,0.9,1.6,0.9
		c0.3,0,0.7-0.1,1-0.3c0.9-0.6,1.1-1.7,0.6-2.6C20.7,74.1,20.6,73.9,20.5,73.7z"/>
	<path d="M26.2,79c-0.2-0.1-0.4-0.2-0.6-0.3c-0.9-0.5-2.1-0.2-2.6,0.7c-0.5,0.9-0.2,2.1,0.7,2.6c0.2,0.1,0.5,0.3,0.8,0.4
		c0.3,0.1,0.5,0.2,0.8,0.2c0.7,0,1.4-0.4,1.7-1.1C27.5,80.6,27.1,79.5,26.2,79z"/>
	<path d="M19.3,41.5c-0.2,0.2-0.4,0.4-0.6,0.6c-0.7,0.8-0.5,2,0.3,2.7c0.4,0.3,0.8,0.4,1.2,0.4c0.5,0,1.1-0.2,1.5-0.7
		c0.1-0.2,0.3-0.3,0.4-0.5c0.7-0.8,0.6-2-0.1-2.7C21.2,40.6,20,40.7,19.3,41.5z"/>
	<path d="M83.5,44.1l-7.9-7.9c-0.9-0.9-2.2-1.5-3.5-1.5c-1.3,0-2.6,0.5-3.5,1.5L58,46.8c-0.4-0.4-0.9-0.6-1.4-0.6
		c-0.5,0-1,0.2-1.4,0.6L41.6,60.4c-0.4,0.4-0.6,0.9-0.6,1.4s0.2,1,0.6,1.4L31,73.8c-0.9,0.9-1.5,2.2-1.5,3.5c0,1.3,0.5,2.6,1.5,3.5
		l7.9,7.9c0.9,0.9,2.2,1.5,3.5,1.5c1.3,0,2.6-0.5,3.5-1.5l9.2-9.2c0.4-0.4,0.6-0.9,0.6-1.4c0-0.6-0.2-1-0.6-1.4L44.5,87.4
		c-0.6,0.6-1.3,0.9-2.1,0.9c-0.8,0-1.6-0.3-2.1-0.9l-7.9-7.9c-0.6-0.6-0.9-1.3-0.9-2.1s0.3-1.5,0.9-2.1L43,64.7l10.7,10.7l1.4,1.4
		l8.2-8.2l8.2-8.2l-1.4-1.4L59.5,48.2L70,37.6c0.6-0.6,1.3-0.9,2.1-0.9c0.8,0,1.5,0.3,2.1,0.9l7.9,7.9c0.6,0.6,0.9,1.3,0.9,2.1
		c0,0.8-0.3,1.6-0.9,2.1L71.6,60.3c0.4,0.4,0.9,0.6,1.4,0.6s1-0.2,1.4-0.6l9.2-9.2c0.9-0.9,1.5-2.2,1.5-3.5
		C85,46.3,84.5,45.1,83.5,44.1z"/>
	<circle cx="37.4" cy="77.4" r="1.9"/>
	<circle cx="43" cy="71.7" r="1.9"/>
	<circle cx="42.5" cy="82.6" r="1.9"/>
	<circle cx="48.2" cy="76.9" r="1.9"/>
	<circle cx="66.5" cy="48.2" r="1.9"/>
	<circle cx="72.1" cy="42.6" r="1.9"/>
	<circle cx="71.7" cy="53.4" r="1.9"/>
	<circle cx="77.3" cy="47.8" r="1.9"/>
</g>
</svg>
