<?xml version="1.0" encoding="utf-8"?>
<!-- Generator: Adobe Illustrator 28.0.0, SVG Export Plug-In . SVG Version: 6.00 Build 0)  -->
<svg version="1.1" xmlns="http://www.w3.org/2000/svg" xmlns:xlink="http://www.w3.org/1999/xlink" x="0px" y="0px"
	 viewBox="0 0 95 118.8" style="enable-background:new 0 0 95 118.8;" xml:space="preserve">
<g id="Calque_2">
</g>
<g id="Calque_1">
	<g>
		<path d="M57,64.6L67.6,54c-3.2-3.9-8.6-11.3-10-19.6l-4.5,4.5l-4.8,4.8C47.7,51.8,53.5,60.3,57,64.6z"/>
		<path d="M53.1,68.5c-3.2-3.9-8.6-11.4-10-19.6l-9.4,9.4c-0.6,8.1,5.2,16.6,8.7,20.9L53.1,68.5z"/>
		<path d="M76.4,39l-8.6-8.6c-1.4-1.3-3.4-1.6-5-0.8c-0.4,8,5.4,16.3,8.8,20.5l4.8-4.8C78.1,43.5,78.1,40.7,76.4,39z"/>
		<path d="M28.5,63.5l-8.6,8.6l-2.5,17.4L34.8,87l3.8-3.8C35.3,79.2,29.9,71.7,28.5,63.5z M21.3,85.6l1.5-10.5l9,9L21.3,85.6z"/>
	</g>
</g>
</svg>
