<?xml version="1.0" encoding="utf-8"?>
<!-- Generator: Adobe Illustrator 28.0.0, SVG Export Plug-In . SVG Version: 6.00 Build 0)  -->
<svg version="1.1" id="Calque_1" xmlns="http://www.w3.org/2000/svg" xmlns:xlink="http://www.w3.org/1999/xlink" x="0px" y="0px"
	 viewBox="0 0 100 125" style="enable-background:new 0 0 100 125;" xml:space="preserve">
<g>
	<path d="M83.8,35.4c-0.8-0.8-1.9-1.3-3.1-1.3c-1.3,0-2.6,0.6-3.6,1.5l-4.4,4.4L71,41.7L54.9,57.8c-0.2-0.1-0.4-0.1-0.6-0.2
		c-0.6-0.1-1.3-0.2-1.9-0.2c-2.1,0-4.9,1.1-8,4.7C40.1,67,32.6,71.3,28.8,73c-2.4,1.1-2.9,1.3-2.9,2.2c0,0.4,0.3,0.7,0.7,0.9
		c7.2,2.5,13.5,3.8,18.6,3.8c10.2,0,13.8-5,15-8c1-2.4,1.2-5,0.8-7.2c0,0,0,0,0,0c0.1-0.1,0.2-0.1,0.2-0.2l16.1-16.1l1.7-1.7
		l4.5-4.5C85.4,40.2,85.6,37.2,83.8,35.4z M49.9,64.1c-1.9,7.1-15.1,9.5-17.5,9.5c-0.3,0-0.3-0.2-0.3-0.2c0-0.3,0.2-0.3,0.7-0.5
		c4.9-1.8,10.6-6.7,13.1-9.1c1.5-1.4,2.6-1.9,3.6-1.4C49.8,62.6,50,63.7,49.9,64.1z M81.9,40.5l-4.3,4.3L76,46.4L60.3,62.1
		c-0.3-0.7-0.7-1.3-1.1-1.8c-0.6-0.6-1.3-1.1-2-1.6l15.7-15.7l1.6-1.6l4.2-4.2c0.5-0.5,1.3-0.8,2-0.8c0.6,0,1.1,0.2,1.5,0.6
		C83,37.9,82.9,39.5,81.9,40.5z"/>
	<path d="M16.9,55.8c0.1,0,0.2,0,0.3,0c1,0,1.9-0.8,2.1-1.8c0-0.2,0.1-0.5,0.1-0.7c0.2-1.1-0.6-2.2-1.7-2.5
		c-1.1-0.2-2.2,0.6-2.5,1.7c-0.1,0.3-0.1,0.6-0.1,0.9C15,54.5,15.8,55.6,16.9,55.8z"/>
	<path d="M17.1,65c1.2,0,2.1-0.9,2.1-2.1v-0.8c0-1.2-0.9-2.1-2.1-2.1S15,60.9,15,62.1v0.8C15,64.1,15.9,65,17.1,65z"/>
	<path d="M28.3,42.1c0.2,0,0.5,0,0.7-0.1c0.2-0.1,0.5-0.2,0.7-0.2c1.1-0.3,1.8-1.5,1.4-2.6s-1.5-1.8-2.6-1.4
		c-0.3,0.1-0.6,0.2-0.9,0.3c-1.1,0.4-1.7,1.6-1.3,2.7C26.6,41.5,27.5,42.1,28.3,42.1z"/>
	<path d="M44.8,45.4c0.4,0.4,1,0.6,1.5,0.6c0.5,0,1.1-0.2,1.5-0.6c0.8-0.8,0.8-2.2,0-3c-0.2-0.2-0.5-0.4-0.7-0.7
		c-0.9-0.8-2.2-0.7-3,0.1c-0.8,0.9-0.7,2.2,0.1,3C44.4,45.1,44.6,45.3,44.8,45.4z"/>
	<path d="M48.5,51.5c0.1,0.2,0.1,0.5,0.2,0.7c0.2,1,1.1,1.6,2,1.6c0.2,0,0.3,0,0.5-0.1c1.1-0.3,1.8-1.4,1.5-2.6
		c-0.1-0.3-0.2-0.6-0.3-0.9c-0.3-1.1-1.5-1.7-2.6-1.4C48.7,49.2,48.1,50.4,48.5,51.5z"/>
	<path d="M37.1,41.4c0.2,0,0.5,0.1,0.7,0.2c0.2,0,0.3,0.1,0.5,0.1c1,0,1.8-0.6,2.1-1.6c0.3-1.1-0.4-2.3-1.6-2.5
		c-0.3-0.1-0.6-0.1-0.9-0.2c-1.2-0.2-2.2,0.5-2.5,1.7C35.2,40,35.9,41.2,37.1,41.4z"/>
	<path d="M19.2,72.2l0-0.8c0-1.2-0.9-2.1-2.1-2.1S15,70.2,15,71.4l0,0.9c0,1.2,1,2.1,2.1,2.1c0,0,0,0,0,0
		C18.3,74.3,19.2,73.3,19.2,72.2z"/>
	<path d="M21.1,79.2c-0.6-1-1.9-1.4-2.9-0.8c-1,0.6-1.4,1.9-0.8,2.9c0.2,0.3,0.3,0.5,0.5,0.8c0.4,0.6,1.1,1,1.8,1
		c0.4,0,0.8-0.1,1.1-0.3c1-0.6,1.3-1.9,0.6-2.9C21.4,79.6,21.2,79.4,21.1,79.2z"/>
	<path d="M35.4,86.6c-0.2,0-0.5,0-0.7,0c-1.2,0-2.1,1-2.1,2.2c0,1.1,1,2.1,2.1,2.1c0,0,0,0,0,0c0.3,0,0.6,0,0.9,0
		c1.2-0.1,2-1.1,2-2.3S36.6,86.5,35.4,86.6z"/>
	<path d="M43,83.9c-0.2,0.1-0.4,0.3-0.6,0.4c-1,0.6-1.3,1.9-0.6,2.9c0.4,0.6,1.1,1,1.8,1c0.4,0,0.8-0.1,1.1-0.3
		c0.3-0.2,0.5-0.3,0.8-0.5c0.9-0.7,1.2-2,0.5-2.9C45.2,83.4,43.9,83.2,43,83.9z"/>
	<path d="M27.5,85.2c-0.2-0.1-0.4-0.2-0.7-0.3c-1-0.6-2.3-0.2-2.9,0.8s-0.2,2.3,0.8,2.9c0.3,0.2,0.6,0.3,0.8,0.4
		c0.3,0.1,0.6,0.2,0.9,0.2c0.8,0,1.5-0.4,1.9-1.2C29,87,28.5,85.7,27.5,85.2z"/>
	<path d="M19.8,43.2c-0.2,0.2-0.4,0.5-0.6,0.7c-0.7,0.9-0.6,2.2,0.3,3c0.4,0.3,0.9,0.5,1.3,0.5c0.6,0,1.2-0.3,1.6-0.8
		c0.2-0.2,0.3-0.4,0.5-0.6c0.8-0.9,0.7-2.2-0.2-3C21.9,42.3,20.6,42.3,19.8,43.2z"/>
</g>
</svg>
