<?xml version="1.0" encoding="utf-8"?>
<!-- Generator: Adobe Illustrator 28.0.0, SVG Export Plug-In . SVG Version: 6.00 Build 0)  -->
<svg version="1.1" id="Calque_1" xmlns="http://www.w3.org/2000/svg" xmlns:xlink="http://www.w3.org/1999/xlink" x="0px" y="0px"
	 viewBox="0 0 100 125" style="enable-background:new 0 0 100 125;" xml:space="preserve">
<g>
	<path d="M85,45.2c-0.7-8.4-13.1-14.2-30.2-14.2c-2.1,0-4.2,0.1-6.4,0.3c-9.2,0.8-17.7,3.2-24,6.8c-5.8,3.3-9.1,7.3-9.6,11.4h0v0.1
		c-0.1,0.6,0,30.5,0,30.5c0,0.3,0.1,0.5,0.1,0.8c1.6,7.9,13.7,13.3,30,13.3c2.1,0,4.2-0.1,6.4-0.3c9.2-0.8,17.7-3.2,24-6.8
		c6.4-3.7,9.8-8,9.6-12.5v-0.8c0-0.1,0-0.1,0-0.1V47C85.1,46.4,85.1,45.8,85,45.2z M82.3,74c0,0.4,0,0.7,0,1.1
		c-0.3,3.2-3.2,6.6-8.2,9.5C68.1,88,60,90.3,51.2,91c-2,0.2-4.1,0.3-6.1,0.3c-14.9,0-26.6-4.9-27.4-11.5c0-0.1,0-0.2,0-0.2
		c0-0.4,0-30.1,0-30.1h0.1c0.3-1.5,1.1-3.1,2.4-4.6c0.4,0.5,0.9,0.8,1.6,0.8c1.1,0,1.9-0.9,1.9-1.9c0-0.6-0.3-1.1-0.7-1.5
		c0.9-0.7,1.9-1.3,2.9-1.9C31.8,37,40,34.7,48.8,34c2-0.2,4.1-0.3,6.1-0.3c8.9,0,16.6,1.7,21.6,4.5c-0.6,0.4-1.1,1.2-1.1,2
		c0,1.3,1.1,2.4,2.4,2.4c1.1,0,2-0.7,2.3-1.7c1.3,1.4,2.1,2.9,2.3,4.5C82.4,46.1,82.3,73.9,82.3,74C82.3,73.9,82.3,74,82.3,74z"/>
	<circle cx="61.4" cy="41.8" r="3.6"/>
	<circle cx="54.5" cy="85.6" r="3.2"/>
	<circle cx="73.8" cy="76.3" r="3.2"/>
	<circle cx="27.7" cy="72.6" r="3.2"/>
	<circle cx="40.2" cy="53.7" r="3.2"/>
	<circle cx="49.4" cy="43" r="2.4"/>
	<circle cx="47.8" cy="70.6" r="2.4"/>
	<circle cx="54" cy="54.7" r="2.4"/>
	<circle cx="39.5" cy="80.1" r="2.4"/>
	<circle cx="61.8" cy="75.9" r="2.4"/>
	<circle cx="27.3" cy="85.1" r="1.9"/>
	<circle cx="78" cy="63.9" r="1.9"/>
	<ellipse cx="69.6" cy="49.1" rx="1.7" ry="1.8"/>
	<circle cx="35.2" cy="40.5" r="1.9"/>
	<circle cx="29.3" cy="51.2" r="2.4"/>
	<circle cx="37.7" cy="70.1" r="1.2"/>
	<circle cx="33.3" cy="82.4" r="1.2"/>
	<circle cx="20.4" cy="65.2" r="1.2"/>
	<circle cx="22.3" cy="79.9" r="1.2"/>
	<circle cx="44.4" cy="87.3" r="1.2"/>
	<circle cx="54.5" cy="75.3" r="1.2"/>
	<circle cx="48.1" cy="79.9" r="1.9"/>
	<circle cx="71.1" cy="67.9" r="1.2"/>
	<circle cx="47.5" cy="58.8" r="1.2"/>
	<circle cx="55.9" cy="47.3" r="1.2"/>
	<circle cx="43.3" cy="39" r="1.2"/>
	<circle cx="65.1" cy="54.7" r="1.2"/>
	<circle cx="41" cy="47.6" r="1.2"/>
	<circle cx="71.1" cy="39.6" r="1.2"/>
	<circle cx="28.4" cy="44.6" r="1.2"/>
	<circle cx="65.6" cy="82.7" r="1.2"/>
	<circle cx="57.3" cy="67" r="1.2"/>
	<path d="M79.3,53c-0.5-0.7-1.4-0.8-2.1-0.3c-11.6,8.9-34.5,13.2-55.7,4.1c-0.8-0.3-1.6,0-2,0.8c-0.3,0.8,0,1.6,0.8,2
		c8.3,3.5,17.4,5.3,26.3,5.3c12.3,0,24.1-3.3,32.4-9.7C79.7,54.6,79.8,53.6,79.3,53z"/>
</g>
</svg>
