<?xml version="1.0" encoding="utf-8"?>
<!-- Generator: Adobe Illustrator 28.0.0, SVG Export Plug-In . SVG Version: 6.00 Build 0)  -->
<svg version="1.1" id="Calque_1" xmlns="http://www.w3.org/2000/svg" xmlns:xlink="http://www.w3.org/1999/xlink" x="0px" y="0px"
	 viewBox="0 0 100 125" style="enable-background:new 0 0 100 125;" xml:space="preserve">
<path d="M84.8,61.4L68.3,32.9c-0.4-0.7-1.1-1.1-1.8-1.1h-33c-0.8,0-1.5,0.4-1.8,1.1L15.2,61.4c-0.4,0.7-0.4,1.5,0,2.1l16.5,28.6
	c0.4,0.7,1.1,1.1,1.8,1.1h33c0.8,0,1.5-0.4,1.8-1.1l16.5-28.6C85.2,62.9,85.2,62.1,84.8,61.4z M80.5,62.5L65.3,88.9H34.7L19.5,62.5
	l15.3-26.4h30.5L80.5,62.5z"/>
</svg>
