<?xml version="1.0" encoding="utf-8"?>
<!-- Generator: Adobe Illustrator 28.0.0, SVG Export Plug-In . SVG Version: 6.00 Build 0)  -->
<svg version="1.1" id="Calque_1" xmlns="http://www.w3.org/2000/svg" xmlns:xlink="http://www.w3.org/1999/xlink" x="0px" y="0px"
	 viewBox="0 0 100 125" style="enable-background:new 0 0 100 125;" xml:space="preserve">
<g>
	<path d="M82.8,80.7c-1.1,0-2,0.9-2,2v8h-8c-1.1,0-2,0.9-2,2s0.9,2,2,2h10c1.1,0,2-0.9,2-2v-10C84.8,81.6,83.9,80.7,82.8,80.7z"/>
	<path d="M61.4,90.7H38.6c-1.1,0-2,0.9-2,2s0.9,2,2,2h22.8c1.1,0,2-0.9,2-2S62.5,90.7,61.4,90.7z"/>
	<path d="M27.2,90.7h-8v-8c0-1.1-0.9-2-2-2s-2,0.9-2,2v10c0,1.1,0.9,2,2,2h10c1.1,0,2-0.9,2-2S28.3,90.7,27.2,90.7z"/>
	<path d="M17.2,74.6c1.1,0,2-0.9,2-2V52.4c0-1.1-0.9-2-2-2s-2,0.9-2,2v20.2C15.2,73.7,16.1,74.6,17.2,74.6z"/>
	<path d="M27.2,30.3h-10c-1.1,0-2,0.9-2,2v10c0,1.1,0.9,2,2,2s2-0.9,2-2v-8h8c1.1,0,2-0.9,2-2S28.3,30.3,27.2,30.3z"/>
	<path d="M61.4,30.3H38.6c-1.1,0-2,0.9-2,2s0.9,2,2,2h22.8c1.1,0,2-0.9,2-2S62.5,30.3,61.4,30.3z"/>
	<path d="M82.8,30.3h-10c-1.1,0-2,0.9-2,2s0.9,2,2,2h8v8c0,1.1,0.9,2,2,2s2-0.9,2-2v-10C84.8,31.2,83.9,30.3,82.8,30.3z"/>
	<path d="M82.8,50.4c-1.1,0-2,0.9-2,2v20.2c0,1.1,0.9,2,2,2s2-0.9,2-2V52.4C84.8,51.3,83.9,50.4,82.8,50.4z"/>
</g>
</svg>
