<?xml version="1.0" encoding="utf-8"?>
<!-- Generator: Adobe Illustrator 28.0.0, SVG Export Plug-In . SVG Version: 6.00 Build 0)  -->
<svg version="1.1" id="Calque_1" xmlns="http://www.w3.org/2000/svg" xmlns:xlink="http://www.w3.org/1999/xlink" x="0px" y="0px"
	 viewBox="0 0 100 125" style="enable-background:new 0 0 100 125;" xml:space="preserve">
<g>
	<path d="M70.9,52.5L60.1,41.7L55,36.6c-0.5-0.5-1.4-0.5-1.9,0l-7.9,7.9c-0.5,0.5-0.5,1.4,0,1.9l4.9,4.9l-24,24.2
		c-0.1,0.1-0.1,0.2-0.2,0.3l-7,11.8c-0.3,0.3-0.7,0.6-1,0.9C16.4,90,15,91.3,15,93c0,1,0.5,2,1.5,3c1,1,2,1.5,3,1.4
		c1.8,0,3.1-1.4,4.5-2.9c0.3-0.3,0.6-0.6,0.9-0.9l12-6.8c0.1-0.1,0.2-0.1,0.3-0.2l24-24.2l5,5c0.5,0.5,1.4,0.5,1.9,0l7.9-7.9
		c0.5-0.5,0.5-1.4,0-1.9L70.9,52.5z M22.1,92.7c-1,1-2,2.1-2.6,2.1c-0.4,0-0.8-0.4-1.1-0.7c-0.4-0.4-0.7-0.8-0.7-1.1
		c0-0.6,1-1.6,2.1-2.5c0.4-0.3,0.8-0.7,1.1-1.1c0,0,0-0.1,0.1-0.1l2.2,2.2c0,0-0.1,0-0.1,0.1C22.7,91.9,22.4,92.3,22.1,92.7z
		 M35.3,84.5l-9.5,5.5l-3.3-3.3l5.6-9.4L52,53.2l7.3,7.3L35.3,84.5z"/>
	<path d="M83.1,31.1l-1.6-1.6c-1.2-1.2-2.9-1.9-4.6-1.9s-3.4,0.7-4.6,1.9L62,39.8l10.8,10.8l10.3-10.3c1.2-1.2,1.9-2.9,1.9-4.6
		C85,33.9,84.3,32.3,83.1,31.1z"/>
</g>
</svg>
