<?xml version="1.0" encoding="utf-8"?>
<!-- Generator: Adobe Illustrator 28.0.0, SVG Export Plug-In . SVG Version: 6.00 Build 0)  -->
<svg version="1.1" id="Calque_1" xmlns="http://www.w3.org/2000/svg" xmlns:xlink="http://www.w3.org/1999/xlink" x="0px" y="0px"
	 viewBox="0 0 100 125" style="enable-background:new 0 0 100 125;" xml:space="preserve">
<g>
	<path d="M29.9,61.1c0,0.7,0.5,1.2,1.2,1.2s1.2-0.5,1.2-1.2v-4.6c4.7-0.6,8.4-4.3,8.9-8.9h4.6c0.7,0,1.2-0.5,1.2-1.2
		c0-0.7-0.5-1.2-1.2-1.2h-4.6c-0.6-4.7-4.3-8.4-8.9-8.9v-4.6c0-0.7-0.6-1.2-1.2-1.2s-1.2,0.5-1.2,1.2v4.6c-4.7,0.6-8.4,4.3-8.9,8.9
		h-4.6c-0.7,0-1.2,0.5-1.2,1.2c0,0.7,0.5,1.2,1.2,1.2H21c0.6,4.7,4.3,8.4,8.9,8.9C29.9,56.5,29.9,61.1,29.9,61.1z M23.4,47.6
		c-0.1-0.4-0.1-0.8-0.1-1.2c0-0.4,0-0.8,0.1-1.2c0.5-3.3,3.1-5.9,6.4-6.4c0.4-0.1,0.8-0.1,1.2-0.1s0.8,0,1.2,0.1
		c3.3,0.5,5.9,3.1,6.4,6.4c0.1,0.4,0.1,0.8,0.1,1.2c0,0.4,0,0.8-0.1,1.2c-0.5,3.3-3.1,5.9-6.4,6.4c-0.4,0.1-0.8,0.1-1.2,0.1
		s-0.8,0-1.2-0.1C26.6,53.5,24,50.9,23.4,47.6z"/>
	<circle cx="31.1" cy="46.3" r="2.5"/>
	<path d="M73.3,57.8L64.5,49l-4.2-4.2c-0.4-0.4-1.1-0.4-1.5,0l-6.4,6.4c-0.4,0.4-0.4,1.1,0,1.5l4,4L36.7,76.7
		c-0.1,0.1-0.1,0.1-0.2,0.2l-5.7,9.7c-0.3,0.3-0.5,0.5-0.8,0.8c-1.3,1.2-2.3,2.2-2.4,3.6c0,0.8,0.4,1.7,1.2,2.5
		c0.8,0.8,1.6,1.2,2.5,1.2c1.4,0,2.5-1.2,3.7-2.4c0.2-0.2,0.5-0.5,0.7-0.7l9.8-5.6c0.1,0,0.2-0.1,0.2-0.2l19.7-19.8l4.1,4.1
		c0.4,0.4,1.1,0.4,1.5,0l6.4-6.4c0.4-0.4,0.4-1.1,0-1.5L73.3,57.8z M34.2,89.8c-0.3,0.3-0.6,0.6-0.9,0.9c-0.8,0.8-1.6,1.7-2.1,1.7
		c-0.3,0-0.6-0.3-0.9-0.5c-0.4-0.4-0.6-0.7-0.6-0.9c0-0.5,0.9-1.3,1.7-2.1c0.3-0.3,0.6-0.6,0.9-0.9c0,0,0,0,0-0.1L34.2,89.8
		C34.3,89.8,34.2,89.8,34.2,89.8z M44.2,84l-7.7,4.5l-2.7-2.7l4.5-7.7l19.6-19.7l5.9,5.9L44.2,84z"/>
	<path d="M83.3,40.3L82,39c-1-1-2.3-1.6-3.8-1.6c-1.4,0-2.8,0.6-3.8,1.6L66,47.5l8.8,8.8l8.4-8.4c1-1,1.6-2.3,1.6-3.8
		C84.8,42.6,84.3,41.3,83.3,40.3z"/>
</g>
</svg>
