<?xml version="1.0" encoding="utf-8"?>
<!-- Generator: Adobe Illustrator 28.0.0, SVG Export Plug-In . SVG Version: 6.00 Build 0)  -->
<svg version="1.1" id="Calque_1" xmlns="http://www.w3.org/2000/svg" xmlns:xlink="http://www.w3.org/1999/xlink" x="0px" y="0px"
	 viewBox="0 0 100 125" style="enable-background:new 0 0 100 125;" xml:space="preserve">
<g>
	<path d="M82.7,90.8L62.9,71.1c3.9-4.6,6.2-10.6,6.2-17.1c0-14.6-11.9-26.5-26.5-26.5S16.2,39.4,16.2,54c0,14.6,11.9,26.5,26.5,26.5
		c5.3,0,10.3-1.6,14.4-4.3l20.1,20.1c0.8,0.8,1.8,1.1,2.8,1.1c1,0,2-0.4,2.7-1.1C84.2,94.8,84.2,92.3,82.7,90.8z M55,74.1
		c-3.6,2.2-7.8,3.5-12.3,3.5c-13,0-23.6-10.6-23.6-23.6s10.6-23.6,23.6-23.6c13,0,23.6,10.6,23.6,23.6c0,5.7-2,10.9-5.4,15
		C59.2,71,57.2,72.8,55,74.1z"/>
	<path d="M34.5,40.8c-0.7-0.4-1.5-0.5-2.4-0.3c-2.8,0.7-6.4,4.8-7.3,9.9c-0.5,3-0.4,8.7,6,12.9c0.2,0.1,0.4,0.1,0.5,0
		c0.1-0.1,0.2-0.3,0.1-0.5c0-0.1-2.3-5,1.7-11.5C35.9,46.9,38.2,43.1,34.5,40.8z"/>
</g>
</svg>
