<?xml version="1.0" encoding="utf-8"?>
<!-- Generator: Adobe Illustrator 28.0.0, SVG Export Plug-In . SVG Version: 6.00 Build 0)  -->
<svg version="1.1" id="Calque_1" xmlns="http://www.w3.org/2000/svg" xmlns:xlink="http://www.w3.org/1999/xlink" x="0px" y="0px"
	 viewBox="0 0 100 125" style="enable-background:new 0 0 100 125;" xml:space="preserve">
<path d="M63,79.8c0.1-0.4,0-0.9-0.4-1.2c-2.5-2.5,4-12.8,9.5-19.5l2.3,2.3c0.5,0.5,1.3,0.5,1.8,0l8.4-8.4c0.5-0.5,0.5-1.3,0-1.8
	L61.3,27.9c-0.5-0.5-1.3-0.5-1.8,0l-8.4,8.4c-0.5,0.5-0.5,1.3,0,1.8l2.3,2.3c-6.7,5.5-17,12-19.5,9.5c-0.3-0.3-0.8-0.5-1.2-0.4
	c-1,0.2-1.5,0.4-9.8,23.6c-4,11.2-7.8,22.5-7.8,22.6c-0.2,0.5,0,1,0.3,1.3c0,0,0,0,0.1,0.1c0.3,0.3,0.8,0.5,1.3,0.3
	c0.1,0,11.4-3.9,22.6-7.8C62.6,81.4,62.8,80.8,63,79.8z M21.1,93.2L41.3,73c2.2,1.4,5.2,1.1,7.2-0.8c2.2-2.2,2.2-5.9,0-8.2
	c-2.2-2.2-5.9-2.2-8.2,0c-1.9,1.9-2.2,4.9-0.8,7.2L19.3,91.4c5.1-14.9,12-34.4,14.1-38.9c5.6,2.4,17.6-6.8,21.7-10.2l7.6,7.6
	l7.6,7.6C66.8,61.6,57.6,73.6,60,79.1C55.5,81.3,36,88.1,21.1,93.2z"/>
</svg>
