<?xml version="1.0" encoding="UTF-8"?>
<svg id="Calque_2" data-name="Calque 2" xmlns="http://www.w3.org/2000/svg" viewBox="0 0 196.07 183.05">
  <defs>
    <style>
      .cls-1 {
        fill: #231f20;
        stroke-width: 0px;
      }
    </style>
  </defs>
  <g id="Layer_1" data-name="Layer 1">
    <polygon class="cls-1" points="151.37 156.92 158.08 166.07 169.71 156.04 161.4 148.03 151.37 156.92"/>
    <polygon class="cls-1" points="127.51 169.02 130.64 179.52 144.94 173.98 139.97 163.99 127.51 169.02"/>
    <path class="cls-1" d="m100.79,172.38l-.55,10.55c5.09.36,10.17-.18,15.27-.39l-1.25-10.68c-4.48.21-8.96.79-13.47.53Z"/>
    <polygon class="cls-1" points="70.59 176 85.11 180.74 87.4 170.63 74.51 166.61 70.59 176"/>
    <polygon class="cls-1" points="45.01 159.46 57.05 168.8 62.42 160.39 51.6 152.23 45.01 159.46"/>
    <polygon class="cls-1" points="27.95 138.01 34.93 148.46 42.47 142.55 36.11 133.29 27.95 138.01"/>
    <path class="cls-1" d="m25.79,39.37L0,31.77l16.24,69.54,54-48.84-19.77-5.83c48.47-62.73,161.86-6.68,124.87,81.37,0,0,4.19,2.05,7.3,3.58l-7.37-3.61-5.49,9.6,9.71,6.6,6.47-10.97-.07-.03C236.43,21.05,85.65-47.6,25.79,39.37Z"/>
  </g>
</svg>