<?xml version="1.0" encoding="UTF-8"?>
<svg id="Calque_2" data-name="Calque 2" xmlns="http://www.w3.org/2000/svg" viewBox="0 0 150.12 141.35">
  <defs>
    <style>
      .cls-1 {
        fill: #3a3939;
      }

      .cls-1, .cls-2 {
        stroke-width: 0px;
      }

      .cls-2 {
        fill: #231f20;
      }
    </style>
  </defs>
  <g id="Layer_1" data-name="Layer 1">
    <path class="cls-2" d="m67.6,0v25.28h-8.68c-12.76,0-23.14,10.38-23.14,23.14v19.12H0V0h67.6Z"/>
    <path class="cls-1" d="m111.8,51.81v8.05c-1.07,0-2.14.06-3.14.19-20.62,1.45-37.16,17.67-39.24,38.1-.13,1.01-.19,2.08-.19,3.14h-6.92c-9.93,0-18.05-8.05-18.05-18.05v-31.44c0-9.93,8.11-18.05,18.05-18.05h31.44c10,0,18.05,8.11,18.05,18.05Z"/>
    <path class="cls-2" d="m93.75,30.62h-31.44c-11.7,0-21.19,9.49-21.19,21.19v31.44c0,11.7,9.49,21.19,21.19,21.19h6.98c-.13-.63-.13-1.26-.13-1.95,0-.38,0-.82.06-1.19,0-1.07.06-2.14.19-3.14h-7.11c-8.24,0-14.9-6.67-14.9-14.9v-31.44c0-8.17,6.67-14.9,14.9-14.9h31.44c8.24,0,14.9,6.73,14.9,14.9v8.24c1.01-.13,2.08-.19,3.14-.19s2.08.06,3.14.19v-8.24c0-11.7-9.49-21.19-21.19-21.19Z"/>
    <path class="cls-2" d="m113.21,141.35c-20.36,0-36.92-16.56-36.92-36.91s16.56-36.91,36.92-36.91,36.91,16.56,36.91,36.91-16.56,36.91-36.91,36.91Zm0-67.54c-16.89,0-30.63,13.74-30.63,30.63s13.74,30.62,30.63,30.62,30.62-13.74,30.62-30.62-13.74-30.63-30.62-30.63Z"/>
  </g>
</svg>